<svg width="106" height="123" viewBox="0 0 106 123" fill="none" xmlns="http://www.w3.org/2000/svg">
<path d="M22.8312 1.14635C22.1375 1.43542 21.5883 2.27371 21.5883 3.08309C21.5883 3.40106 22.0508 4.06591 22.6 4.61514L23.5828 5.56905L22.6 6.69641C21.4437 7.93939 21.2992 8.95112 22.1664 9.81832C23.0336 10.6855 24.2766 10.541 25.4906 9.50034L26.5313 8.57534L27.4563 9.50034C28.5547 10.541 29.711 10.6566 30.5493 9.81832C31.3587 9.00893 31.272 7.9683 30.2313 6.81204L29.3352 5.7714L30.2313 4.70186C31.243 3.45888 31.3587 2.64949 30.6071 1.69558C29.7977 0.712752 28.4102 0.828379 27.2828 1.95573L26.3867 2.88074L25.4906 2.04245C24.4789 1.05963 23.6984 0.799472 22.8312 1.14635Z" fill="#33824A" stroke="#33824A"/>
<path d="M53.9637 11.8705C37.1689 13.5182 22.9469 26.9308 19.9695 43.9279C19.3914 47.2521 19.5649 54.7678 20.2586 57.9476C21.9641 65.5211 25.1727 71.3891 30.8673 77.3439C36.6197 83.3564 37.8338 86.1315 38.2963 94.0808C38.5276 97.9831 38.5565 98.1855 39.4237 99.4574C39.9151 100.151 40.7823 101.018 41.3604 101.307C42.3143 101.828 42.401 101.943 42.2276 102.839C42.112 103.446 42.2276 104.256 42.5456 105.094C43.0081 106.279 43.0081 106.482 42.5745 107.551C41.9674 109.083 41.9963 109.979 42.719 111.511C43.1815 112.436 43.7018 112.986 44.7425 113.535L46.1589 114.315V115.992C46.1589 117.061 46.3612 118.044 46.7081 118.767C47.4019 120.068 49.0495 121.6 50.148 121.889C50.5816 122.033 54.1949 122.12 58.1551 122.12C65.0927 122.12 65.4396 122.091 66.5958 121.484C68.706 120.357 69.8623 118.189 69.8623 115.385C69.8623 114.315 69.949 114.113 70.6716 113.853C71.6545 113.477 72.6951 112.523 73.2154 111.511C73.7357 110.471 73.7357 108.274 73.1865 107.233C72.7818 106.453 72.7818 106.279 73.1865 105.499C73.8514 104.227 73.7357 102.001 72.9842 100.874C71.5677 98.7925 71.2787 98.7058 65.3528 98.6191L60.034 98.5324L60.0051 80.697C60.0051 70.8977 59.9184 62.6304 59.8028 62.3703C59.3403 61.2429 49.223 49.3912 48.5581 49.2467C47.8644 49.0443 37.776 52.8889 36.851 53.6983C36.1572 54.2764 36.1861 55.8374 36.851 56.4444C37.6893 57.2249 38.5565 57.0515 43.1237 55.2014C45.494 54.2475 47.5175 53.5538 47.6331 53.6694C47.7487 53.8139 49.6855 56.0975 51.9113 58.8148L55.9871 63.7V81.1595V98.5902L49.9167 98.5035L43.8464 98.4167L43.0659 97.6074C42.2854 96.8269 42.2565 96.7113 42.0831 92.5487C41.8807 87.9237 41.3604 85.7846 39.7416 82.5181C38.383 79.8587 37.3713 78.5001 34.1627 75.147C32.5439 73.4704 30.6361 71.2446 29.9134 70.2039C27.0227 66.1859 24.9704 61.3585 24.0165 56.4444C23.3516 53.0624 23.3516 47.2232 24.0165 43.8412C26.4157 31.4981 35.3189 21.323 47.2284 17.3339C50.0035 16.4088 54.5418 15.5995 56.941 15.5995C58.6176 15.5995 59.3981 15.2237 59.745 14.2698C60.1208 13.3447 59.4559 11.9861 58.5309 11.726C57.7504 11.5236 57.2879 11.5525 53.9637 11.8705ZM69.3998 102.782C69.6599 103.013 69.8623 103.331 69.8623 103.446C69.8623 104.285 68.8216 104.343 57.6926 104.285C46.7081 104.198 46.3034 104.169 46.2167 103.649C45.9565 102.377 46.5058 102.319 58.0395 102.319C67.5786 102.319 69.024 102.377 69.3998 102.782ZM69.5443 108.794C69.9779 109.315 69.6599 110.095 68.8794 110.268C68.5615 110.355 63.4161 110.384 57.4613 110.355C47.8933 110.268 46.6214 110.211 46.3612 109.806C46.1878 109.546 46.1589 109.112 46.2456 108.852C46.419 108.447 47.5464 108.39 57.8082 108.39C67.1161 108.39 69.2841 108.476 69.5443 108.794ZM65.8153 115.616C65.8153 116.686 65.6708 117.206 65.2372 117.64C64.688 118.189 64.2833 118.218 58.0395 118.218C50.5816 118.218 50.3503 118.16 50.0035 116.136C49.6855 114.084 49.3097 114.171 58.0106 114.171H65.8153V115.616Z" fill="#33824A" stroke="#33824A"/>
<path d="M69.4864 13.4315C67.4629 13.9519 65.5262 15.0503 64.5145 16.2355L63.7918 17.1027V52.889C63.7918 78.9049 63.8785 88.9066 64.1098 89.4269C64.3121 89.8605 65.0348 90.4097 65.9309 90.8144C67.1739 91.3925 67.8676 91.4792 70.5848 91.4792C74.1693 91.4792 74.9497 91.2191 76.9443 89.2824L78.1006 88.1839L79.517 88.5886C84.7491 90.1785 90.5015 87.3167 93.0742 81.8534C93.9413 80.0612 93.9992 79.7143 93.9703 76.9103C93.9703 73.9908 93.9992 73.8752 94.8085 73.008C95.9359 71.765 97.0054 69.915 97.4969 68.2673C97.9594 66.7641 98.075 62.9196 97.6703 61.8789C97.4679 61.2719 97.6992 60.925 99.8094 58.8438C103.307 55.375 104.839 51.9351 104.839 47.5413C104.839 41.4131 101.168 36.0943 95.5601 34.0997L93.9992 33.5794L93.7679 31.6138C93.1609 26.0637 89.1429 22.0746 83.8819 21.7277C81.8295 21.6121 81.685 21.5543 81.5404 20.8316C80.9912 18.3168 80.3842 17.1316 78.9967 15.7441C76.6841 13.4315 73.0419 12.5354 69.4864 13.4315ZM75.0654 17.6808C76.6263 18.4902 77.667 20.2824 77.667 22.1613C77.667 23.202 77.4646 23.6067 76.3373 24.9075C74.0247 27.4801 73.2153 30.3419 73.9091 33.6083C74.3138 35.6318 76.2505 38.6381 77.2912 38.8982C78.2451 39.1584 79.3435 38.6092 79.6904 37.7131C79.9795 36.9326 79.9506 36.8459 78.3896 34.2443C77.1466 32.2208 77.4935 29.388 79.2279 27.509C82.0029 24.4449 87.2639 25.5723 89.2296 29.6481C89.8077 30.8333 89.8655 31.238 89.6921 33.4927C89.4608 36.5279 89.6632 36.817 92.2648 37.3084C95.6179 37.9154 98.1039 39.6787 99.5781 42.4537C101.804 46.6163 101.081 51.7038 97.7859 55.4039C95.7336 57.6586 95.4156 57.7453 93.1031 56.6179C91.2819 55.7218 90.8773 55.6351 88.5069 55.6351C86.1944 55.6351 85.703 55.7507 84.0264 56.5312C80.7021 58.1211 79.6326 59.6531 80.7311 61.2141C81.367 62.1391 82.8123 62.0524 84.142 61.0117C85.5874 59.8555 86.946 59.4508 88.9116 59.5953C92.4382 59.8555 93.9992 61.5032 93.9703 64.8852C93.9413 67.429 93.0452 69.3368 91.0507 71.1001C89.3163 72.6322 89.1429 73.0658 89.721 74.7424C91.3687 79.6276 87.6397 84.9464 82.5811 84.9753C79.806 84.9753 79.806 84.9464 79.6037 82.3448C79.2857 77.5463 76.4529 74.3955 72.3192 74.222C71.1919 74.1642 70.845 74.2798 70.4114 74.8291C70.1223 75.2049 69.8622 75.783 69.8622 76.101C69.8622 76.9393 70.9895 78.0377 71.8567 78.0377C73.013 78.0377 74.5161 78.9916 75.1232 80.0901C75.9037 81.5354 75.8458 84.3104 74.9786 85.5534C73.9958 87.0565 72.6083 87.7214 70.5848 87.7214C69.6309 87.7214 68.6192 87.6058 68.359 87.5191C67.8676 87.3167 67.8387 85.38 67.8387 52.8023V18.2879L68.9372 17.8253C70.5559 17.1316 70.7583 17.1027 72.3192 17.0738C73.3021 17.0449 74.2271 17.2472 75.0654 17.6808Z" fill="#33824A" stroke="#33824A"/>
<path d="M4.0998 20.1088C-0.669782 22.7104 -0.149464 29.5612 4.93809 31.0644C8.23344 32.0472 11.4421 30.1972 12.3671 26.7862C12.9452 24.5893 11.9335 21.9877 9.93892 20.6002C8.4936 19.5885 5.48731 19.3572 4.0998 20.1088ZM7.82874 24.0112C8.75375 24.7338 8.81157 25.8612 7.94437 26.7862C7.27952 27.5088 6.55686 27.6245 5.66075 27.1331C3.98417 26.237 4.76465 23.5197 6.7303 23.433C6.90374 23.4041 7.39515 23.6643 7.82874 24.0112Z" fill="#33824A" stroke="#33824A"/>
<path d="M45.5518 22.0745C42.69 23.2596 39.7994 25.1386 39.597 25.9479C39.3369 26.9886 39.8283 28.1159 40.7244 28.4339C41.3025 28.6363 41.7072 28.5495 42.5744 28.0581C43.2104 27.7402 44.8002 26.9019 46.1588 26.237C47.5174 25.5722 48.8471 24.8495 49.1362 24.6182C50.2347 23.6643 49.3096 21.3518 47.8354 21.3807C47.4596 21.4096 46.4479 21.6987 45.5518 22.0745Z" fill="#33824A" stroke="#33824A"/>
<path d="M33.8735 30.6887C32.2548 32.5965 30.0868 35.9786 29.2196 38.031C28.3235 40.1412 28.4969 41.0662 29.8266 41.6732C31.0696 42.2513 31.8212 41.6154 33.3243 38.7247C34.0759 37.2794 35.3767 35.1981 36.215 34.0997C37.9783 31.8739 38.2384 30.6887 37.14 29.9371C35.9837 29.1278 35.0298 29.359 33.8735 30.6887Z" fill="#33824A" stroke="#33824A"/>
<path d="M1.32481 49.738C0.515424 50.5474 0.688863 51.9349 1.67169 52.6865C2.97248 53.6404 4.53344 52.7154 4.53344 51.0099C4.53344 49.3045 2.53888 48.524 1.32481 49.738Z" fill="#33824A" stroke="#33824A"/>
</svg>
