<svg width="123" height="123" viewBox="0 0 123 123" fill="none" xmlns="http://www.w3.org/2000/svg">
<path d="M109.268 1.35477C108.132 1.96963 107.778 3.34122 108.416 4.54728C108.866 5.46956 109.244 5.5878 111.798 5.75333L113.974 5.87157L93.3997 26.4455L72.8257 47.0194L59.5355 33.7291C50.8093 25.0266 46.0087 20.3916 45.5831 20.297C45.2283 20.2024 44.7081 20.2024 44.4006 20.297C43.7621 20.4861 2.02313 62.0833 1.50287 63.0292C1.00626 63.9988 1.10085 64.7792 1.85759 65.6305C2.42515 66.269 2.70892 66.4109 3.51296 66.4109H4.48254L24.6544 46.239C35.7454 35.1717 44.9209 26.0908 45.0391 26.0908C45.181 26.0908 51.235 32.0501 58.5186 39.3337C72.4474 53.2625 72.4474 53.2625 73.7953 52.5767C74.1027 52.4112 84.0823 42.5972 95.9537 30.7258L117.521 9.18232V11.2634C117.521 13.5809 117.828 14.4795 118.821 14.9288C119.625 15.3072 120.24 15.2835 121.044 14.8815C122.156 14.2903 122.25 13.7228 122.25 8.11815C122.25 2.51353 122.156 1.94598 121.044 1.35477C120.122 0.881813 110.119 0.881813 109.268 1.35477Z" fill="#33824A" stroke="#33824A" stroke-width="1.5"/>
<path d="M93.2578 45.3404L92.4537 46.1445V81.7586V117.373H90.0889H87.7241V91.0996C87.7241 67.0021 87.7005 64.7792 87.3221 64.1644C87.1093 63.786 86.6836 63.384 86.3762 63.2421C85.9978 63.0766 82.4742 62.982 75.7581 62.982H65.684L64.88 63.786L64.0759 64.59V90.9814V117.373H61.7111H59.3463V85.5423C59.3463 56.2659 59.3227 53.6646 58.9443 53.0497C58.7315 52.6714 58.3058 52.2693 57.9984 52.1274C57.62 51.9619 54.0964 51.8673 47.3803 51.8673H37.3062L36.5022 52.6714L35.6981 53.4754V85.4241V117.373H33.3333H30.9685V98.667C30.9685 81.6404 30.9449 79.914 30.5665 79.2992C30.3536 78.9208 29.928 78.5188 29.6206 78.3769C29.2422 78.2114 25.7186 78.1168 19.0025 78.1168H8.92841L8.12437 78.9208L7.32034 79.7249V98.5488V117.373H5.192C2.82718 117.373 1.9995 117.633 1.50289 118.579C0.864386 119.809 1.3137 121.298 2.47246 121.819C3.37109 122.221 120.051 122.221 120.95 121.819C121.636 121.511 122.25 120.518 122.25 119.738C122.25 118.957 121.636 117.964 120.95 117.657C120.619 117.491 119.389 117.373 118.23 117.373H116.102V81.8768C116.102 49.1951 116.078 46.3336 115.7 45.7188C115.487 45.3404 115.061 44.9384 114.754 44.7965C114.376 44.631 110.852 44.5364 104.136 44.5364H94.0618L93.2578 45.3404ZM111.372 83.3194V117.373H104.278H97.1834V83.3194V49.266H104.278H111.372V83.3194ZM54.6167 86.9849V117.373H47.5222H40.4278V86.9849V56.597H47.5222H54.6167V86.9849ZM82.9945 92.5422V117.373H75.9H68.8056V92.5422V67.7116H75.9H82.9945V92.5422ZM26.2389 100.11V117.373H19.1444H12.05V100.11V82.8464H19.1444H26.2389V100.11Z" fill="#33824A" stroke="#33824A" stroke-width="1.5"/>
</svg>
