<svg width="149" height="117" viewBox="0 0 149 117" fill="none" xmlns="http://www.w3.org/2000/svg">
<path d="M93.7204 0.536776C91.6472 1.12862 90.4625 1.85705 88.9132 3.38219C86.1337 6.15931 85.0402 9.98354 85.9743 13.6029C87.2729 18.6108 91.5333 21.957 96.6138 21.957C102.651 21.957 107.504 17.0629 107.504 10.9851C107.504 3.95127 100.419 -1.42087 93.7204 0.536776Z" fill="#33824A"/>
<path d="M1.63226 1.01488C0.0830266 1.94818 0.196941 -2.44513 0.196941 52.9152C0.196941 106.932 0.128592 104.042 1.35887 104.838C1.65504 105.043 11.3377 107.889 22.8659 111.189C43.0514 116.971 43.8488 117.176 44.7829 116.926C45.4892 116.721 52.8025 116.652 71.4616 116.652C91.2827 116.63 97.229 116.584 97.5024 116.356C98.3454 115.719 98.3909 115.264 98.3909 107.001V98.897H112.152H125.935L126.391 98.3052C126.847 97.7134 126.869 97.4402 126.892 89.0178V80.345L133.795 74.8362L140.699 69.3503L142.385 71.0348C143.296 71.9453 144.093 72.651 144.162 72.5827C144.276 72.4689 148.263 59.8808 148.194 59.8125C148.149 59.7669 136.438 63.3863 135.664 63.6822C135.276 63.8416 135.39 64.0237 136.666 65.3212C137.942 66.5959 138.079 66.8463 137.805 67.1195C137.623 67.2788 134.547 69.76 130.97 72.6054C127.393 75.4509 124.249 78.0231 123.976 78.3418C123.452 78.8881 123.452 78.8881 123.452 87.1967V95.4825H109.737C98.8238 95.5053 95.9076 95.5508 95.6114 95.8012C94.9052 96.3248 94.7457 97.2808 94.7457 100.741V104.133H90.9865C88.9133 104.133 87.2274 104.064 87.2274 103.95C87.2274 103.586 95.4975 69.4186 95.6342 69.282C95.7026 69.191 97.9808 70.1925 100.669 71.49C103.358 72.7875 105.636 73.8802 105.75 73.903C105.841 73.9485 105.704 77.2719 105.454 81.3238C105.112 86.6504 105.044 88.9267 105.226 89.5413C105.545 90.7478 106.319 91.8177 107.459 92.6144C108.803 93.5704 111.081 93.7298 112.607 92.9786C113.769 92.4323 114.681 91.4534 115.205 90.247C115.569 89.4048 116.594 75.5874 116.594 71.4673C116.617 69.0316 116.207 67.9162 114.886 66.8236C114.384 66.4138 110.648 64.5017 106.547 62.5441L99.0744 58.993V51.2307C99.0744 46.974 99.1656 43.5823 99.2567 43.7188C99.3706 43.8326 100.487 45.1529 101.74 46.6553C104.383 49.8194 105.112 50.5251 105.955 50.8437C106.297 50.9803 110.375 51.5039 115 52.0274C124.523 53.1201 124.682 53.1201 126.209 51.5722C127.758 50.047 127.94 47.6796 126.664 45.9269C125.594 44.4473 125.024 44.2879 117.05 43.3774L109.805 42.5579L104.269 35.9565C98.8922 29.5373 98.0948 28.4902 96.705 25.8724C95.6114 23.8237 93.4926 22.6628 91.3738 22.9587C90.0752 23.1408 89.1867 23.6188 87.683 24.9619C86.9995 25.5765 82.4885 28.9227 77.6586 32.3827C70.3681 37.641 68.796 38.8475 68.3632 39.6442C67.8847 40.5092 67.7936 41.4197 67.0873 50.3885C66.495 57.7638 66.3583 60.4271 66.5405 61.0645C67.4291 64.3196 71.4844 65.3895 73.8766 63.0221C74.2411 62.6579 74.674 62.0433 74.8335 61.6791C74.993 61.2921 75.3803 57.5589 75.722 53.029C76.041 48.6357 76.3599 44.8342 76.4055 44.5611C76.4966 44.2424 77.932 43.0587 80.6887 41.0783L84.8352 38.0735L84.9719 50.6844C85.063 59.9946 85.1541 63.5001 85.3819 64.183C85.6553 65.048 85.4731 65.913 81.1899 83.5318C78.7294 93.6615 76.6106 102.448 76.4966 103.063L76.246 104.133H70.1174H63.9889L64.1483 103.518C64.2623 103.154 64.3306 80.345 64.3306 52.8014C64.3306 3.49609 64.3306 2.69937 63.875 1.99371C62.9636 0.468567 65.0597 0.559624 32.1613 0.559624C2.99923 0.559624 2.33853 0.559624 1.63226 1.01488ZM58.521 53.029V99.5799H52.7114H46.9017V57.1036C46.9017 10.6665 46.9929 13.6258 45.6487 12.7607C45.3525 12.5559 40.4542 11.0763 34.7813 9.46007L24.4607 6.50084L41.5022 6.47808H58.521V53.029ZM23.8227 12.4193L40.9782 17.2906V63.8188C40.9782 100.923 40.9099 110.301 40.7048 110.233C40.5453 110.165 32.6853 107.934 23.2759 105.248L6.12048 100.377V53.8485C6.12048 16.7443 6.18883 7.36584 6.41665 7.43414C6.55335 7.50243 14.4134 9.73323 23.8227 12.4193Z" fill="#33824A"/>
<path d="M13.2289 47.6796C11.9758 48.4536 11.7708 49.2958 11.8619 53.3477C11.9302 56.6256 11.9758 56.9443 12.4542 57.6272C12.7732 58.0825 13.32 58.4694 13.8896 58.6288C15.1198 59.0158 16.3957 58.606 17.1019 57.6272C17.5804 56.9443 17.626 56.6256 17.6943 53.3477C17.7854 49.2958 17.5804 48.4536 16.3273 47.6796C15.9172 47.4292 15.211 47.2244 14.7781 47.2244C14.3452 47.2244 13.639 47.4292 13.2289 47.6796Z" fill="#33824A"/>
</svg>
