<svg width="155" height="97" viewBox="0 0 155 97" fill="none" xmlns="http://www.w3.org/2000/svg">
<path d="M18.9302 1.67104C18.4508 1.88075 17.7318 2.39005 17.3723 2.77952C16.5634 3.67829 0.804993 43.5837 0.804993 44.7521C0.804993 45.9804 1.49405 47.4783 2.39282 48.1973C2.8422 48.5269 6.19761 49.9949 9.85261 51.4629C16.9229 54.2491 18.301 54.5486 19.799 53.59C20.548 53.0807 20.6079 53.1406 24.9819 55.8668C27.4086 57.3947 29.985 59.0425 30.6741 59.4919L31.9024 60.3307L31.3332 61.559C30.4943 63.4764 30.5543 66.3525 31.5429 68.2998C32.8911 70.9961 35.7671 72.8536 38.5833 72.8536C39.6318 72.8536 39.6918 72.9135 39.9015 73.9621C40.5606 77.4972 44.3054 80.6429 47.8706 80.6429C48.5596 80.6429 48.7094 80.8227 49.009 81.9611C49.8479 85.2566 52.694 87.7732 55.9894 88.1027L57.8469 88.2825L58.0866 89.4209C58.9254 93.4354 62.6403 96.2216 66.7148 95.8321C69.2912 95.5925 70.8791 94.6637 73.2458 91.9375L74.2045 90.799L76.5113 92.4767C77.8895 93.4654 79.4473 94.3342 80.436 94.6038C85.3492 96.0418 90.652 92.8961 91.7005 87.923C91.9103 87.0242 91.9702 86.9942 92.8689 87.2639C95.5653 88.0428 99.1004 87.1141 101.168 85.1068C102.606 83.7287 103.864 81.2421 103.864 79.8041V78.8454H105.602C108.268 78.8454 110.035 78.0964 111.983 76.179C113.541 74.5912 114.649 72.4941 114.649 71.086C114.649 70.6965 115.069 70.6067 117.136 70.6067C119.113 70.6067 119.862 70.4569 120.881 69.9176C124.685 67.9103 126.693 63.6262 125.644 59.7315L125.195 58.1138L128.55 55.9567C134.093 52.3616 133.583 52.5714 134.871 53.3802C136.759 54.5486 137.777 54.3389 145.147 51.4329C148.802 49.9949 152.128 48.5568 152.517 48.2573C153.416 47.5682 154.195 45.9205 154.195 44.7521C154.195 43.6735 148.443 28.9637 147.694 28.1548C146.585 26.9265 144.009 27.8851 144.009 29.5629C144.009 29.9523 145.297 33.5474 146.855 37.5319C148.443 41.5165 149.671 44.812 149.641 44.8419C149.372 45.0516 137.807 49.4856 137.568 49.4856C137.298 49.4856 134.782 43.2841 122.858 13.0255L121.899 10.5988L128.041 8.17213C131.426 6.82398 134.242 5.77541 134.302 5.80537C134.332 5.8653 135.74 9.3705 137.418 13.6247C140.534 21.4739 140.953 22.2229 142.451 22.2229C143.29 22.2229 144.608 20.9646 144.608 20.1557C144.608 19.197 138.317 3.55845 137.628 2.77952C136.819 1.91071 135.321 1.25161 134.152 1.25161C132.804 1.25161 119.742 6.52439 118.754 7.48308C117.915 8.29197 117.286 9.96967 117.405 11.1381C117.495 11.7672 117.106 11.9769 113.601 13.2652C108.418 15.1526 107.609 15.2425 101.797 14.4036L97.0033 13.7145L96.2244 14.4336C95.2657 15.3323 95.2357 16.6206 96.1644 17.5193C96.7037 18.0886 97.6025 18.3282 101.737 18.9274C107.789 19.7962 109.406 19.6464 115.188 17.4594C119.143 15.9914 119.173 15.9914 119.443 16.6206C119.562 16.9801 122.468 24.2901 125.854 32.8583C129.239 41.3966 131.965 48.437 131.935 48.437C131.906 48.467 129.748 49.875 127.142 51.5527L122.379 54.5786L120.251 53.0207C119.053 52.1819 115.009 49.186 111.234 46.3998C107.459 43.6136 103.954 41.0971 103.444 40.7975C102.636 40.3481 102.156 40.3181 99.4599 40.5878C92.2398 41.3068 84.9897 38.7303 79.2676 33.3676C75.2231 29.5928 73.7551 29.6827 68.4524 33.9968C64.318 37.3522 60.0039 39.2995 56.6485 39.2995C54.7911 39.2995 53.5028 38.8801 51.7952 37.7417C49.728 36.3036 49.9677 35.8243 54.4915 32.5887C59.3448 29.1135 63.6589 25.5184 69.1115 20.3954C71.5082 18.1485 73.875 16.1113 74.3543 15.8716C75.9721 15.0627 77.1105 15.0327 81.874 15.7817C87.8358 16.7104 88.1055 16.7104 88.8544 15.7518C89.6034 14.823 89.6633 13.9243 89.0342 13.0255C88.4949 12.2765 88.4949 12.2765 82.2036 11.2879C77.9793 10.6288 76.8708 10.5689 75.4628 10.8385C73.0061 11.2879 71.0588 12.3364 68.6321 14.5534C67.4637 15.6319 66.4451 16.4408 66.3552 16.3809C66.2953 16.291 65.1569 15.9615 63.8387 15.6319C60.9327 14.9129 56.4987 14.5234 48.8292 14.2538C43.1071 14.0441 43.0472 14.0441 40.2909 12.9356C37.7444 11.947 37.5047 11.7972 37.5946 11.1081C37.7145 10.1195 36.8756 8.08226 36.0368 7.27337C35.138 6.40456 22.016 1.25161 20.7876 1.25161C20.2484 1.28157 19.4395 1.46133 18.9302 1.67104ZM26.9891 8.14217L33.1008 10.5689L32.1421 13.0255C20.3982 42.8047 17.7019 49.4856 17.4622 49.4856C17.1926 49.4856 5.59843 45.0516 5.35876 44.8419C5.26888 44.782 20.6378 5.74546 20.7577 5.74546C20.8176 5.74546 23.6038 6.82398 26.9891 8.14217ZM44.3953 18.5379C52.694 18.8975 59.0153 19.2869 60.8128 19.5865C62.5505 19.8861 62.7602 19.976 62.4606 20.3654C61.5918 21.414 54.4016 27.1661 50.9563 29.5629C46.852 32.4389 46.0431 33.5174 46.0431 36.1239C46.0431 38.7902 47.6908 40.8274 51.3458 42.6549C52.8737 43.4039 53.7126 43.5837 55.8396 43.7035C61.2622 44.033 65.786 41.9659 73.7551 35.5846L74.4741 35.0154L76.3915 36.8129C80.1963 40.378 84.8999 42.9545 90.0528 44.3027C92.4795 44.9618 93.6479 45.0816 97.4527 45.1116L101.976 45.1415L110.874 51.7025C115.758 55.3276 120.042 58.5931 120.371 59.0125C123.157 62.5477 119.562 67.5508 115.368 65.963C114.949 65.7833 112.252 63.8659 109.436 61.7088C106.62 59.5518 103.954 57.6344 103.504 57.4547C101.917 56.8555 100.299 58.3834 100.748 60.121C100.868 60.6004 102.396 61.9785 105.122 64.0756C107.429 65.8432 109.496 67.6707 109.736 68.1201C111.144 70.8463 108.897 74.3515 105.751 74.3515C104.044 74.3515 103.954 74.2916 98.4413 70.0974C95.3855 67.7905 93.528 66.5622 93.0487 66.5622C91.5208 66.5922 90.4722 68.2099 91.1014 69.618C91.2811 70.0674 93.0187 71.6253 95.026 73.1532C97.0033 74.6811 98.7709 76.179 98.9806 76.5385C99.1903 76.898 99.3401 77.8867 99.37 78.7555C99.37 79.9838 99.2203 80.4931 98.5911 81.2421C97.0632 83.0396 94.9062 83.5489 92.9888 82.5603C92.4495 82.2907 90.3824 80.7927 88.3751 79.2648C83.8513 75.7896 83.5817 75.6398 82.3533 76.2689C81.2748 76.8381 80.8554 77.9466 81.3347 78.9952C81.5145 79.3846 82.8926 80.6729 84.3606 81.8413C86.5776 83.6089 87.0869 84.1481 87.2666 84.987C87.5662 86.6946 87.1468 88.1626 86.0083 89.2411C84.81 90.3796 83.2821 90.7391 81.7242 90.2897C80.406 89.8703 77.3202 87.6234 77.4401 87.174C77.5 86.9942 77.7996 86.4849 78.1291 86.0655C79.657 84.1182 80.1364 80.4632 79.1477 78.1563C78.0093 75.4301 74.8037 73.1532 72.1074 73.1532H70.7592L70.3997 71.6253C69.6208 68.3897 66.6548 65.8132 63.3594 65.4537L61.7416 65.3039L61.2622 63.5963C60.3035 60.3906 57.3376 57.9939 54.0421 57.8142C52.694 57.7243 52.664 57.6943 52.3344 56.4061C51.8851 54.6385 51.3458 53.6199 50.1774 52.4815C47.8106 50.1147 44.0358 49.4257 41.0998 50.7738C39.7217 51.4329 38.6432 52.4216 35.7971 55.5972L34.7485 56.7956L32.6814 55.4474C31.5429 54.6984 28.8466 52.9608 26.6596 51.6127L22.705 49.1261L23.2742 47.748C23.8435 46.3099 35.108 17.789 35.5574 16.6206C35.827 15.9914 35.827 15.9914 38.763 17.1898C41.2796 18.2384 42.0885 18.4181 44.3953 18.5379ZM46.5823 55.3276C47.0617 55.717 47.6309 56.466 47.8406 56.9753C48.5297 58.6231 48.0503 59.6117 44.5152 63.7461C42.7176 65.8731 40.9201 67.7606 40.5606 67.9703C39.6618 68.4796 38.1039 68.4496 37.0554 67.9103C35.9469 67.3411 35.2578 66.0229 35.2578 64.495C35.2578 63.4165 35.5275 62.9671 37.5946 60.5105C38.8529 58.9826 40.5905 57.0053 41.4294 56.1664C42.8075 54.6984 43.0472 54.5786 44.3054 54.5786C45.354 54.5786 45.9232 54.7584 46.5823 55.3276ZM56.1392 63.4165C56.9781 64.3752 57.2477 65.3638 57.008 66.6521C56.7684 67.8804 50.9264 74.8608 49.4584 75.6697C48.1402 76.3588 46.6422 76.1191 45.354 74.9507C44.4852 74.2017 44.3953 73.9321 44.3953 72.4641C44.3953 70.8463 44.3953 70.8463 47.2714 67.431C50.7766 63.3266 51.4057 62.6975 52.5142 62.3979C53.7725 62.0683 55.3903 62.5177 56.1392 63.4165ZM65.1269 71.1759C66.3552 72.524 66.505 74.3815 65.4565 75.7296C63.9885 77.647 59.4647 82.77 58.8355 83.1894C58.0267 83.7587 56.1392 83.7587 55.0607 83.1894C54.132 82.74 53.2332 81.1223 53.2332 79.9838C53.2332 79.5944 53.6227 78.6656 54.102 77.9167C55.3303 76.0592 60.1537 70.6965 61.0225 70.2172C62.2808 69.5581 64.0184 69.9775 65.1269 71.1759ZM74.0847 78.6656C75.4328 80.0138 75.5527 81.8712 74.4142 83.519C72.9462 85.6161 68.1228 90.8889 67.4338 91.1585C64.6176 92.2071 61.5918 89.5407 62.5205 86.7845C62.88 85.706 68.7819 78.6057 69.8005 78.0365C70.16 77.8268 71.0588 77.677 71.7778 77.647C72.8563 77.647 73.2458 77.8268 74.0847 78.6656Z" fill="#33824A" stroke="#33824A"/>
</svg>
