<svg width="150" height="108" viewBox="0 0 150 108" fill="none" xmlns="http://www.w3.org/2000/svg">
<path d="M31.0732 0.829865C26.6818 1.06252 21.1853 1.90589 17.2884 2.89467C13.9731 3.73804 13.5368 4.26151 13.3914 7.37327L13.2751 9.52532H7.98221C2.34034 9.52532 1.93319 9.64165 1.14798 11.183C0.653593 12.1427 0.711757 104.797 1.20615 105.786C1.40972 106.193 2.04952 106.746 2.63116 107.037L3.70718 107.56L7.42965 105.961C27.1471 97.5559 48.9003 95.7238 71.2642 100.551L75.2484 101.424L79.1163 100.58C83.8857 99.5335 89.7602 98.6319 94.1807 98.2248C100.869 97.6432 113.084 97.9921 118.871 98.9809C128.555 100.58 135.739 102.674 143.358 106.019C147.08 107.676 147.837 107.705 149 106.31L149.727 105.437V58.6445C149.727 7.72225 149.814 10.6304 148.127 9.8743C147.633 9.64165 145.568 9.52532 142.166 9.52532H136.931V7.3151C136.931 4.84315 136.669 4.17427 135.535 3.59264C133.441 2.54569 125.531 1.20792 118.871 0.829865C101.945 -0.188004 87.8408 3.9707 77.4586 12.9861L75.1612 14.9927L73.0673 13.0442C66.9019 7.28602 57.9157 3.18549 47.7952 1.55691C45.0615 1.12068 37.3257 0.480881 35.7262 0.568123C35.3191 0.568123 33.2252 0.684456 31.0732 0.829865ZM47.1554 7.46051C56.8106 9.29266 64.0228 12.7534 69.8974 18.308L72.3693 20.6346V56.5215C72.3693 76.268 72.3111 92.4084 72.2239 92.4084C72.1367 92.4084 71.5259 92.0595 70.828 91.6232C66.0586 88.5987 57.8575 85.836 49.9472 84.5854C41.1064 83.1604 33.138 83.0441 21.418 84.1492L19.1496 84.3528V46.401V8.4493L21.5634 7.98399C23.6864 7.57684 26.4782 7.16969 29.6191 6.79163C30.1716 6.73347 33.6614 6.70438 37.3257 6.76255C42.5896 6.82071 44.6834 6.9952 47.1554 7.46051ZM125.182 7.3151C126.956 7.57684 129.05 7.9549 129.835 8.15848L131.26 8.50745L131.347 46.4301L131.405 84.3528L129.166 84.1492C122.535 83.5385 120.063 83.3931 115.527 83.3931C102.178 83.3931 90.4291 85.9232 81.1811 90.8089L78.1857 92.3794V56.5215V20.6637L80.1632 18.7152C86.9393 12.0554 94.8786 8.65286 107.995 6.79163C110.059 6.50082 122.128 6.87888 125.182 7.3151ZM13.6241 52.072V88.8023L14.2348 89.4712C15.1654 90.46 15.9797 90.6635 18.0445 90.3436C22.4068 89.7038 29.9099 89.2094 35.29 89.2094C43.2875 89.2094 50.0054 90.0819 56.3743 91.9431L58.8463 92.6702L56.0835 92.4666C51.7212 92.1467 39.0997 92.263 35.5808 92.6411C26.5364 93.688 16.794 96.0437 8.62201 99.1845L6.64444 99.9406V57.6557V15.3417H10.1343H13.6241V52.072ZM143.911 57.6557V99.9406L141.962 99.1845C132.481 95.6074 121.954 93.2227 111.804 92.3794C107.82 92.0595 96.8271 92.1758 93.0174 92.5539C91.9123 92.6702 92.0868 92.5829 94.0352 91.9722C97.2924 90.9834 103.022 89.8783 107.122 89.4712C111.484 89.035 124.368 89.2967 129.224 89.9074C133.383 90.46 135.012 90.489 135.826 90.0528C137.251 89.2967 137.222 90.3436 137.222 51.5485V15.3417H140.566H143.911V57.6557Z" fill="#33824A"/>
</svg>
